# File created by Blade
# Date/Time:  Tue Sep 30 19:31:45 2014
#---------------------------------------------------------
:version 1.10
:name HOM
:units
  mass 1.0
  length 1.000000
  angle deg
:documentation
     Acclaim Skeleton File
:root
   axis xyz
   order TX TY TZ RX RY RZ
   position 0.000000 0.000000 0.000000
   orientation 0 0 0
:bonedata
   begin
      id 1
      name Spine_dum
      direction 0.000000 1.000000 0.000000
      length 3.241213
      axis 0.0 0.0 0.0 xyz
   end
   begin
      id 2
      name LeftUpLeg_dum
      direction 1.000000 0.000000 0.000000
      length 3.434019
      axis 0.0 0.0 0.0 xyz
   end
   begin
      id 3
      name RightUpLeg_dum
      direction -1.000000 0.000000 0.000000
      length 3.434019
      axis 0.0 0.0 0.0 xyz
   end
   begin
      id 4
      name Spine
      direction 0.000000 1.000000 0.000000
      length 0.000000
      axis 0.0 0.0 0.0 xyz
      dof rx ry rz
   end
   begin
      id 5
      name Spine_dum1
      direction 0.000000 1.000000 0.000000
      length 18.382958
      axis 0.0 0.0 0.0 xyz
   end
   begin
      id 6
      name Spine_dum2
      direction 0.000000 1.000000 0.000000
      length 12.828261
      axis 0.0 0.0 0.0 xyz
   end
   begin
      id 7
      name Spine_dum3
      direction 0.000000 1.000000 0.000000
      length 12.828261
      axis 0.0 0.0 0.0 xyz
   end
   begin
      id 8
      name Head
      direction 0.000000 1.000000 0.000000
      length 4.527550
      axis 0.0 0.0 0.0 xyz
      dof rx ry rz
   end
   begin
      id 9
      name LeftShoulder
      direction 1.000000 0.000000 0.000000
      length 7.748055
      axis 0.0 0.0 -90.0 xyz
      dof rx ry rz
   end
   begin
      id 10
      name LeftArm
      direction 1.000000 0.000000 0.000000
      length 10.635614
      axis 0.0 0.0 -90.0 xyz
      dof rx ry rz
   end
   begin
      id 11
      name LeftForeArm
      direction 1.000000 0.000000 0.000000
      length 8.346755
      axis 0.0 0.0 -90.0 xyz
      dof ry rz rx
   end
   begin
      id 12
      name LeftHand
      direction 0.000000 0.000000 0.000000
      length 0.000000
      axis 0.0 0.0 -90.0 xyz
      dof rx ry rz
   end
   begin
      id 13
      name LeftHand_dum1
      direction 0.000000 0.000000 0.000000
      length 0.000000
      axis 0.0 0.0 -90.0 xyz
   end
   begin
      id 14
      name LeftHand_dum2
      direction 1.000000 0.000000 0.000000
      length 3.937000
      axis 0.0 0.0 -90.0 xyz
   end
   begin
      id 15
      name LeftHandThumb1
      direction 0.000000 0.000000 1.000000
      length 3.937000
      axis 0.0 0.0 -90.0 xyz
      dof rx rz ry
   end
   begin
      id 16
      name RightShoulder
      direction -1.000000 0.000000 0.000000
      length 7.748055
      axis 0.0 0.0 90.0 xyz
      dof rx ry rz
   end
   begin
      id 17
      name RightArm
      direction -1.000000 0.000000 0.000000
      length 10.635614
      axis 0.0 0.0 90.0 xyz
      dof rx ry rz
   end
   begin
      id 18
      name RightForeArm
      direction -1.000000 0.000000 0.000000
      length 8.346755
      axis 0.0 0.0 90.0 xyz
      dof ry rz rx
   end
   begin
      id 19
      name RightHand
      direction 0.000000 0.000000 0.000000
      length 0.000000
      axis 0.0 0.0 90.0 xyz
      dof rx ry rz
   end
   begin
      id 20
      name RightHand_dum1
      direction 0.000000 0.000000 0.000000
      length 0.000000
      axis 0.0 0.0 90.0 xyz
   end
   begin
      id 21
      name RightHand_dum2
      direction -1.000000 0.000000 0.000000
      length 3.937000
      axis 0.0 0.0 90.0 xyz
   end
   begin
      id 22
      name RightHandThumb1
      direction 0.000000 0.000000 1.000000
      length 3.937000
      axis 0.0 0.0 90.0 xyz
      dof rx rz ry
   end
   begin
      id 23
      name LeftUpLeg
      direction 0.000000 -1.000000 0.000000
      length 15.713025
      axis 0.0 0.0 0.0 xyz
      dof rx ry rz
   end
   begin
      id 24
      name LeftLeg
      direction 0.000000 -1.000000 0.000000
      length 14.435119
      axis 0.0 0.0 0.0 xyz
      dof rx ry rz
   end
   begin
      id 25
      name LeftFoot
      direction 0.000000 -0.258819 0.965926
      length 4.938895
      axis 15.0 0.0 0.0 xyz
      dof rx ry rz
   end
   begin
      id 26
      name LeftToeBase
      direction 0.000000 0.000000 1.000000
      length 2.952750
      axis 0.0 0.0 0.0 xyz
      dof rx ry rz
   end
   begin
      id 27
      name RightUpLeg
      direction 0.000000 -1.000000 0.000000
      length 15.713025
      axis 0.0 0.0 0.0 xyz
      dof rx ry rz
   end
   begin
      id 28
      name RightLeg
      direction 0.000000 -1.000000 0.000000
      length 14.435119
      axis 0.0 0.0 0.0 xyz
      dof rx ry rz
   end
   begin
      id 29
      name RightFoot
      direction 0.000000 -0.258819 0.965926
      length 4.938895
      axis 15.0 0.0 0.0 xyz
      dof rx ry rz
   end
   begin
      id 30
      name RightToeBase
      direction 0.000000 0.000000 1.000000
      length 2.952750
      axis 0.0 0.0 0.0 xyz
      dof rx ry rz
   end
:hierarchy
   begin
      root Spine_dum LeftUpLeg_dum RightUpLeg_dum
      Spine_dum Spine
      LeftUpLeg_dum LeftUpLeg
      RightUpLeg_dum RightUpLeg
      Spine Spine_dum1 Spine_dum2 Spine_dum3
      Spine_dum1 Head
      Spine_dum2 LeftShoulder
      Spine_dum3 RightShoulder
      LeftShoulder LeftArm
      LeftArm LeftForeArm
      LeftForeArm LeftHand
      LeftHand LeftHand_dum1 LeftHand_dum2
      LeftHand_dum1 LeftHandThumb1
      RightShoulder RightArm
      RightArm RightForeArm
      RightForeArm RightHand
      RightHand RightHand_dum1 RightHand_dum2
      RightHand_dum1 RightHandThumb1
      LeftUpLeg LeftLeg
      LeftLeg LeftFoot
      LeftFoot LeftToeBase
      RightUpLeg RightLeg
      RightLeg RightFoot
      RightFoot RightToeBase
   end

# File created by Blade
# Date/Time:  Mon Sep 22 19:00:17 2014
# Frame Rate: 120.000 fps
#------------------------------------------------------
:FULLY-SPECIFIED
:DEGREES
929
root -0.454384 32.789322 -3.819349 37.657334 23.201194 2.921214
Spine -45.934318 12.759496 -13.996861
Head 8.359959 -18.821850 -14.904975
LeftShoulder -8.845710 42.299532 13.520715
LeftArm 73.250133 33.943907 -46.853980
LeftForeArm 9.135976 -0.000000 10.091183
LeftHand -19.066235 -0.000000 -8.561974
LeftHandThumb1 -26.253704 0.000000 33.147579
RightShoulder -12.555445 -3.953613 -48.491127
RightArm 117.699506 38.972638 125.093367
RightForeArm 78.256799 -0.000000 137.391660
RightHand 26.642164 -0.000000 -8.703122
RightHandThumb1 -24.326973 -0.000000 -32.862282
LeftUpLeg -34.857883 -7.731925 7.032015
LeftLeg -0.830591 -0.000000 0.000000
LeftFoot 1.231977 -6.911496 -3.824075
LeftToeBase 2.129911 -0.000000 -0.000000
RightUpLeg -29.479179 -20.722582 10.092134
RightLeg -3.608900 -0.000000 0.000000
RightFoot -9.867097 -14.018825 20.202549
RightToeBase 14.975865 -0.000000 -0.000000
930
root -0.455309 32.789554 -3.819943 37.636895 23.166914 2.915932
Spine -45.927775 12.720963 -13.969235
Head 8.351159 -18.854915 -14.824349
LeftShoulder -8.820845 42.310848 13.542060
LeftArm 73.240327 33.978298 -46.832794
LeftForeArm 9.144325 -0.000000 9.969197
LeftHand -19.035792 0.000000 -8.640478
LeftHandThumb1 -26.253704 0.000000 33.147579
RightShoulder -12.533377 -4.023621 -48.487567
RightArm 117.735967 38.915035 125.153461
RightForeArm 78.255334 -0.000000 137.402610
RightHand 26.638155 -0.000000 -8.699962
RightHandThumb1 -24.326973 -0.000000 -32.862282
LeftUpLeg -34.835518 -7.709908 7.017831
LeftLeg -0.827742 -0.000000 0.000000
LeftFoot 1.228798 -6.913655 -3.818117
LeftToeBase 2.118832 -0.000000 -0.000000
RightUpLeg -29.464356 -20.718912 10.085656
RightLeg -3.612547 -0.000000 0.000000
RightFoot -9.853151 -13.983731 20.219815
RightToeBase 14.966919 -0.000000 -0.000000
931
root -0.455888 32.789732 -3.821043 37.616265 23.121869 2.905233
Spine -45.920667 12.692961 -13.937618
Head 8.328837 -18.863817 -14.753503
LeftShoulder -8.815264 42.305641 13.550550
LeftArm 73.229177 34.020473 -46.810854
LeftForeArm 9.083393 -0.000000 9.822354
LeftHand -18.981894 0.000000 -8.767248
LeftHandThumb1 -26.253704 0.000000 33.147579
RightShoulder -12.514066 -4.060659 -48.481436
RightArm 117.762935 38.863594 125.187818
RightForeArm 78.295487 -0.000000 137.415110
RightHand 26.582480 -0.000000 -8.757296
RightHandThumb1 -24.326973 -0.000000 -32.862282
LeftUpLeg -34.810689 -7.686557 7.006305
LeftLeg -0.829222 -0.000000 0.000000
LeftFoot 1.223263 -6.898717 -3.827946
LeftToeBase 2.114483 -0.000000 -0.000000
RightUpLeg -29.458398 -20.704897 10.075397
RightLeg -3.600418 -0.000000 0.000000
RightFoot -9.851743 -13.949871 20.212246
RightToeBase 15.012164 -0.000000 -0.000000
932
root -0.456956 32.789797 -3.822254 37.597269 23.088605 2.900662
Spine -45.908459 12.655218 -13.904977
Head 8.304530 -18.867405 -14.683846
LeftShoulder -8.801975 42.295881 13.559360
LeftArm 73.226323 34.078004 -46.757501
LeftForeArm 9.062123 0.000000 9.672522
LeftHand -18.973988 -0.000000 -8.774495
LeftHandThumb1 -26.253704 0.000000 33.147579
RightShoulder -12.497803 -4.060834 -48.487467
RightArm 117.736573 38.846013 125.171018
RightForeArm 78.266619 -0.000000 137.426670
RightHand 26.597296 0.000000 -8.778268
RightHandThumb1 -24.326973 -0.000000 -32.862282
LeftUpLeg -34.794887 -7.672407 6.996804
LeftLeg -0.820380 -0.000000 0.000000
LeftFoot 1.215786 -6.881721 -3.834977
LeftToeBase 2.109528 -0.000000 -0.000000
RightUpLeg -29.447275 -20.682852 10.058563
RightLeg -3.592391 -0.000000 0.000000
RightFoot -9.849782 -13.960865 20.166641
RightToeBase 15.035447 -0.000000 -0.000000
933
root -0.457926 32.789926 -3.822914 37.579648 23.059671 2.893938
Spine -45.903974 12.629118 -13.885285
Head 8.287613 -18.905700 -14.622532
LeftShoulder -8.760037 42.301893 13.590636
LeftArm 73.238498 34.116231 -46.714800
LeftForeArm 8.976065 -0.000000 9.488805
LeftHand -18.921861 0.000000 -8.889915
LeftHandThumb1 -26.253704 0.000000 33.147579
RightShoulder -12.494532 -3.994045 -48.492633
RightArm 117.644379 38.858562 125.107908
RightForeArm 78.280871 -0.000000 137.420400
RightHand 26.610486 -0.000000 -8.714600
RightHandThumb1 -24.326973 -0.000000 -32.862282
LeftUpLeg -34.774975 -7.666410 6.996525
LeftLeg -0.825701 -0.000000 0.000000
LeftFoot 1.215340 -6.866022 -3.834100
LeftToeBase 2.101142 -0.000000 -0.000000
RightUpLeg -29.436789 -20.686927 10.059737
RightLeg -3.598187 -0.000000 0.000000
RightFoot -9.825352 -13.935146 20.188932
RightToeBase 14.993709 -0.000000 -0.000000
934
root -0.460830 32.790677 -3.824828 37.549511 23.014914 2.876502
Spine -45.888693 12.622042 -13.859912
Head 8.274576 -18.966202 -14.598062
LeftShoulder -8.715406 42.299280 13.606273
LeftArm 73.240049 34.155411 -46.650692
LeftForeArm 8.930587 0.000000 9.309025
LeftHand -18.898083 -0.000000 -8.933471
LeftHandThumb1 -26.253704 0.000000 33.147579
RightShoulder -12.512865 -3.798173 -48.521377
RightArm 117.390317 38.902449 124.923926
RightForeArm 78.202918 -0.000000 137.419645
RightHand 26.592931 -0.000000 -8.677435
RightHandThumb1 -24.326973 -0.000000 -32.862282
LeftUpLeg -34.750937 -7.617812 6.977097
LeftLeg -0.814091 -0.000000 0.000000
LeftFoot 1.203558 -6.866959 -3.827333
LeftToeBase 2.126317 -0.000000 -0.000000
RightUpLeg -29.422469 -20.648081 10.043165
RightLeg -3.585974 -0.000000 0.000000
RightFoot -9.823770 -13.915173 20.214524
RightToeBase 15.011254 -0.000000 -0.000000
935
root -0.463495 32.790863 -3.824798 37.506893 22.992737 2.875643
Spine -45.852170 12.586876 -13.829992
Head 8.272478 -18.991302 -14.567911
LeftShoulder -8.680440 42.307342 13.618761
LeftArm 73.243212 34.182331 -46.599079
LeftForeArm 8.862563 -0.000000 9.125675
LeftHand -18.890679 0.000000 -9.032797
LeftHandThumb1 -26.253704 0.000000 33.147579
RightShoulder -12.543253 -3.525562 -48.565739
RightArm 117.026006 38.964556 124.682840
RightForeArm 78.160943 -0.000000 137.420461
RightHand 26.571976 -0.000000 -8.589020
RightHandThumb1 -24.326973 -0.000000 -32.862282
LeftUpLeg -34.709443 -7.637256 6.986907
LeftLeg -0.812221 -0.000000 0.000000
LeftFoot 1.208466 -6.832668 -3.847377
LeftToeBase 2.101984 -0.000000 -0.000000
RightUpLeg -29.390047 -20.664891 10.038290
RightLeg -3.574873 -0.000000 0.000000
RightFoot -9.803921 -13.897366 20.188315
RightToeBase 14.971066 -0.000000 -0.000000
936
root -0.464869 32.791306 -3.823544 37.467656 22.963574 2.866527
Spine -45.830598 12.557582 -13.801190
Head 8.275198 -19.034245 -14.536898
LeftShoulder -8.648380 42.317823 13.637239
LeftArm 73.223802 34.214326 -46.590988
LeftForeArm 8.810207 -0.000000 8.945605
LeftHand -18.931921 0.000000 -9.003727
LeftHandThumb1 -26.253704 0.000000 33.147579
RightShoulder -12.559743 -3.407253 -48.594024
RightArm 116.839694 38.961270 124.595491
RightForeArm 78.124535 -0.000000 137.446696
RightHand 26.546879 -0.000000 -8.516098
RightHandThumb1 -24.326973 -0.000000 -32.862282
LeftUpLeg -34.665099 -7.594474 6.959714
LeftLeg -0.811347 -0.000000 0.000000
LeftFoot 1.206875 -6.855736 -3.832460
LeftToeBase 2.111254 -0.000000 -0.000000
RightUpLeg -29.354608 -20.664087 10.030774
RightLeg -3.581831 -0.000000 0.000000
RightFoot -9.796442 -13.860820 20.209304
RightToeBase 14.992963 -0.000000 -0.000000
937
root -0.466048 32.791667 -3.824613 37.445903 22.932659 2.860043
Spine -45.816249 12.531417 -13.779736
Head 8.255681 -19.057396 -14.491160
LeftShoulder -8.617618 42.325560 13.660740
LeftArm 73.211003 34.257062 -46.579418
LeftForeArm 8.797851 -0.000000 8.780229
LeftHand -18.972822 -0.000000 -9.042614
LeftHandThumb1 -26.253704 0.000000 33.147579
RightShoulder -12.567206 -3.415362 -48.590785
RightArm 116.855628 38.899592 124.643889
RightForeArm 78.177750 -0.000000 137.482774
RightHand 26.525012 -0.000000 -8.481433
RightHandThumb1 -24.326973 -0.000000 -32.862282
LeftUpLeg -34.644413 -7.586979 6.955596
LeftLeg -0.808064 -0.000000 0.000000
LeftFoot 1.200841 -6.828549 -3.836556
LeftToeBase 2.104919 -0.000000 -0.000000
RightUpLeg -29.344500 -20.666982 10.019174
RightLeg -3.573350 -0.000000 0.000000
RightFoot -9.743146 -13.823932 20.075904
RightToeBase 14.997080 -0.000000 -0.000000
938
root -0.466765 32.792054 -3.824070 37.428734 22.893286 2.849313
Spine -45.816877 12.510139 -13.766916
Head 8.252924 -19.104745 -14.456446
LeftShoulder -8.607538 42.336303 13.675931
LeftArm 73.197582 34.296895 -46.577864
LeftForeArm 8.833881 -0.000000 8.603089
LeftHand -19.001323 -0.000000 -9.127435
LeftHandThumb1 -26.253704 0.000000 33.147579
RightShoulder -12.562232 -3.437564 -48.572554
RightArm 116.914920 38.829489 124.711722
RightForeArm 78.123753 -0.000000 137.499903
RightHand 26.481013 -0.000000 -8.402104
RightHandThumb1 -24.326973 -0.000000 -32.862282
LeftUpLeg -34.621058 -7.569361 6.950010
LeftLeg -0.811787 -0.000000 0.000000
LeftFoot 1.194631 -6.807516 -3.839425
LeftToeBase 2.116790 -0.000000 -0.000000
RightUpLeg -29.339927 -20.657954 10.014981
RightLeg -3.559388 -0.000000 0.000000
RightFoot -9.738603 -13.789575 20.046147
RightToeBase 15.026192 -0.000000 -0.000000
939
root -0.469198 32.792508 -3.823698 37.413457 22.857129 2.837941
Spine -45.815906 12.486843 -13.754637
Head 8.237644 -19.123309 -14.402041
LeftShoulder -8.587318 42.356282 13.695872
LeftArm 73.177102 34.319464 -46.592972
LeftForeArm 8.854417 -0.000000 8.408869
LeftHand -18.958256 -0.000000 -9.185869
LeftHandThumb1 -26.253704 0.000000 33.147579
RightShoulder -12.564293 -3.420554 -48.563341
RightArm 116.930755 38.773440 124.758731
RightForeArm 78.118930 0.000000 137.534853
RightHand 26.433173 -0.000000 -8.307129
RightHandThumb1 -24.326973 -0.000000 -32.862282
LeftUpLeg -34.603419 -7.541754 6.943901
LeftLeg -0.812606 -0.000000 0.000000
LeftFoot 1.190275 -6.802716 -3.856384
LeftToeBase 2.135255 -0.000000 -0.000000
RightUpLeg -29.333871 -20.625771 10.013429
RightLeg -3.554087 -0.000000 0.000000
RightFoot -9.749720 -13.817942 20.130207
RightToeBase 14.987176 -0.000000 -0.000000
940
root -0.471303 32.792511 -3.823324 37.399991 22.822511 2.829843
Spine -45.818683 12.460119 -13.741181
Head 8.236757 -19.155497 -14.370382
LeftShoulder -8.568756 42.384777 13.713860
LeftArm 73.155740 34.340419 -46.604093
LeftForeArm 8.887253 0.000000 8.228113
LeftHand -18.922047 -0.000000 -9.254257
LeftHandThumb1 -26.253704 0.000000 33.147579
RightShoulder -12.552193 -3.390249 -48.557751
RightArm 116.959674 38.723272 124.831850
RightForeArm 78.143694 0.000000 137.567835
RightHand 26.421853 -0.000000 -8.294229
RightHandThumb1 -24.326973 -0.000000 -32.862282
LeftUpLeg -34.587534 -7.530127 6.943180
LeftLeg -0.810964 -0.000000 0.000000
LeftFoot 1.183980 -6.778276 -3.848560
LeftToeBase 2.103017 -0.000000 -0.000000
RightUpLeg -29.329560 -20.619964 10.016879
RightLeg -3.553060 -0.000000 0.000000
RightFoot -9.745118 -13.806066 20.137870
RightToeBase 14.968488 -0.000000 -0.000000
941
root -0.473879 32.792487 -3.823538 37.384425 22.781785 2.817733
Spine -45.816928 12.439041 -13.725495
Head 8.233086 -19.170618 -14.343882
LeftShoulder -8.564533 42.404176 13.721074
LeftArm 73.119855 34.356009 -46.635955
LeftForeArm 8.876836 -0.000000 8.047905
LeftHand -18.912722 0.000000 -9.318425
LeftHandThumb1 -26.253704 0.000000 33.147579
RightShoulder -12.536254 -3.380720 -48.549434
RightArm 117.002044 38.677398 124.886714
RightForeArm 78.171759 -0.000000 137.627705
RightHand 26.494730 -0.000000 -8.316532
RightHandThumb1 -24.326973 -0.000000 -32.862282
LeftUpLeg -34.571544 -7.490162 6.927589
LeftLeg -0.804383 -0.000000 0.000000
LeftFoot 1.172151 -6.778577 -3.834512
LeftToeBase 2.105463 -0.000000 -0.000000
RightUpLeg -29.326330 -20.595658 10.008217
RightLeg -3.540795 -0.000000 0.000000
RightFoot -9.742958 -13.771611 20.147283
RightToeBase 14.996122 -0.000000 -0.000000
